HIERARCHY
ROOT Hips
{
	OFFSET 0.000000 83.214638 0.000000
	CHANNELS 6 Xposition Yposition Zposition Xrotation Yrotation Zrotation
	JOINT Pelvis
	{
		OFFSET 0.000000 0.000000 0.000000
		CHANNELS 3 Xrotation Yrotation Zrotation
		JOINT LeftUpLeg
		{
			OFFSET 8.479700 -4.795502 -0.379100
			CHANNELS 3 Xrotation Yrotation Zrotation
			JOINT LeftLeg
			{
				OFFSET 0.024144 -32.555107 0.112900
				CHANNELS 3 Xrotation Yrotation Zrotation
				JOINT LeftFoot
				{
					OFFSET -0.024144 -32.638630 -3.012600
					CHANNELS 3 Xrotation Yrotation Zrotation
					JOINT LeftToeBase
					{
						OFFSET 0.970200 -13.225400 11.864200
						CHANNELS 3 Xrotation Yrotation Zrotation
						End Site
						{
							OFFSET 0.000000 12.319262 0.000000
						}
					}
					JOINT LFootTongue
					{
						OFFSET 1.142400 -1.059800 6.665200
						CHANNELS 3 Xrotation Yrotation Zrotation
						End Site
						{
							OFFSET 0.000000 12.319262 0.000000
						}
					}
				}
				JOINT LeftPantLeg
				{
					OFFSET 0.918482 -16.533964 -2.284700
					CHANNELS 3 Xrotation Yrotation Zrotation
					End Site
					{
						OFFSET 0.350399 24.744368 0.000000
					}
				}
			}
		}
		JOINT RightUpLeg
		{
			OFFSET -8.479700 -4.795502 -0.379100
			CHANNELS 3 Xrotation Yrotation Zrotation
			JOINT RightLeg
			{
				OFFSET -0.023144 -32.555092 0.112900
				CHANNELS 3 Xrotation Yrotation Zrotation
				JOINT RightFoot
				{
					OFFSET 0.023144 -32.638641 -3.012700
					CHANNELS 3 Xrotation Yrotation Zrotation
					JOINT RightToeBase
					{
						OFFSET -0.970200 -13.225400 11.864200
						CHANNELS 3 Xrotation Yrotation Zrotation
						End Site
						{
							OFFSET 0.000000 12.319244 0.000000
						}
					}
					JOINT RFootTongue
					{
						OFFSET -1.142200 -1.059800 6.665200
						CHANNELS 3 Xrotation Yrotation Zrotation
						End Site
						{
							OFFSET 0.000000 12.319243 0.000000
						}
					}
				}
				JOINT RightPantLeg
				{
					OFFSET -0.919482 -16.533978 -2.284800
					CHANNELS 3 Xrotation Yrotation Zrotation
					End Site
					{
						OFFSET -0.350400 24.744419 0.000000
					}
				}
			}
		}
	}
	JOINT Spine
	{
		OFFSET 0.000000 7.722000 1.166200
		CHANNELS 3 Xrotation Yrotation Zrotation
		JOINT Spine1
		{
			OFFSET 0.000000 12.024101 0.248800
			CHANNELS 3 Xrotation Yrotation Zrotation
			JOINT Spine2
			{
				OFFSET 0.000000 11.502998 -0.491200
				CHANNELS 3 Xrotation Yrotation Zrotation
				JOINT Neck
				{
					OFFSET 0.000000 18.430702 -3.123100
					CHANNELS 3 Xrotation Yrotation Zrotation
					JOINT Head
					{
						OFFSET 0.000000 9.051102 1.034000
						CHANNELS 3 Xrotation Yrotation Zrotation
						JOINT HairB
						{
							OFFSET 0.208400 24.786102 24.822300
							CHANNELS 3 Xrotation Yrotation Zrotation
							End Site
							{
								OFFSET 0.000000 32.263779 0.000000
							}
						}
						JOINT HairA
						{
							OFFSET -7.081100 24.428299 23.196600
							CHANNELS 3 Xrotation Yrotation Zrotation
							End Site
							{
								OFFSET 0.000000 32.263779 0.000000
							}
						}
						JOINT Hat
						{
							OFFSET 16.728800 15.048294 -15.439601
							CHANNELS 3 Xrotation Yrotation Zrotation
							End Site
							{
								OFFSET 0.000000 32.263779 0.000000
							}
						}
					}
				}
				JOINT LeftShoulder
				{
					OFFSET 6.197800 13.665199 -4.064700
					CHANNELS 3 Xrotation Yrotation Zrotation
					JOINT LeftArm
					{
						OFFSET 7.778100 -0.187103 -1.709300
						CHANNELS 3 Xrotation Yrotation Zrotation
						JOINT LeftForeArm
						{
							OFFSET 22.049376 0.000000 0.000000
							CHANNELS 3 Xrotation Yrotation Zrotation
							JOINT LeftHand
							{
								OFFSET 23.009392 0.000000 0.000000
								CHANNELS 3 Xrotation Yrotation Zrotation
								JOINT LeftHandThumb1
								{
									OFFSET 3.507191 -2.063065 3.133727
									CHANNELS 3 Xrotation Yrotation Zrotation
									JOINT LeftHandThumb2
									{
										OFFSET 3.101337 -1.790558 1.790558
										CHANNELS 3 Xrotation Yrotation Zrotation
										JOINT LeftHandThumb3
										{
											OFFSET 3.058640 -1.765907 1.765906
											CHANNELS 3 Xrotation Yrotation Zrotation
											End Site
											{
												OFFSET -0.415260 3.926476 -0.049563
											}
										}
									}
								}
								JOINT LeftHandIndex1
								{
									OFFSET 11.334419 -0.901459 3.706815
									CHANNELS 3 Xrotation Yrotation Zrotation
									JOINT LeftHandIndex2
									{
										OFFSET 3.283112 0.000000 0.000000
										CHANNELS 3 Xrotation Yrotation Zrotation
										JOINT LeftHandIndex3
										{
											OFFSET 3.323853 0.000000 0.000000
											CHANNELS 3 Xrotation Yrotation Zrotation
											End Site
											{
												OFFSET -1.135597 3.097809 0.402452
											}
										}
									}
								}
								JOINT LeftHandMiddle1
								{
									OFFSET 11.335861 0.000000 0.000000
									CHANNELS 3 Xrotation Yrotation Zrotation
									JOINT LeftHandMiddle2
									{
										OFFSET 3.410492 0.000000 0.000000
										CHANNELS 3 Xrotation Yrotation Zrotation
										JOINT LeftHandMiddle3
										{
											OFFSET 3.312172 0.000000 0.000000
											CHANNELS 3 Xrotation Yrotation Zrotation
											End Site
											{
												OFFSET -1.150200 3.080154 0.400270
											}
										}
									}
								}
								JOINT LeftHandRing1
								{
									OFFSET 11.514786 -0.013176 -3.003090
									CHANNELS 3 Xrotation Yrotation Zrotation
									JOINT LeftHandRing2
									{
										OFFSET 3.053307 0.000000 0.000000
										CHANNELS 3 Xrotation Yrotation Zrotation
										JOINT LeftHandRing3
										{
											OFFSET 3.295807 0.000000 0.000000
											CHANNELS 3 Xrotation Yrotation Zrotation
											End Site
											{
												OFFSET -1.281006 3.013344 0.375733
											}
										}
									}
								}
								JOINT LeftHandPinky1
								{
									OFFSET 10.518692 -0.960396 -5.730441
									CHANNELS 3 Xrotation Yrotation Zrotation
									JOINT LeftHandPinky2
									{
										OFFSET 2.861649 0.000000 0.000000
										CHANNELS 3 Xrotation Yrotation Zrotation
										JOINT LeftHandPinky3
										{
											OFFSET 2.863380 0.000000 0.000000
											CHANNELS 3 Xrotation Yrotation Zrotation
											End Site
											{
												OFFSET -0.843597 2.711159 0.369971
											}
										}
									}
								}
							}
							JOINT LSleeve
							{
								OFFSET 6.676277 -0.344902 -1.011730
								CHANNELS 3 Xrotation Yrotation Zrotation
								End Site
								{
									OFFSET 0.000000 14.885353 0.000000
								}
							}
						}
					}
				}
				JOINT RightShoulder
				{
					OFFSET -6.197800 13.665199 -4.064700
					CHANNELS 3 Xrotation Yrotation Zrotation
					JOINT RightArm
					{
						OFFSET -7.778100 -0.187103 -1.709300
						CHANNELS 3 Xrotation Yrotation Zrotation
						JOINT RightForeArm
						{
							OFFSET -22.049376 0.000000 0.000000
							CHANNELS 3 Xrotation Yrotation Zrotation
							JOINT RightHand
							{
								OFFSET -23.009392 0.000000 0.000000
								CHANNELS 3 Xrotation Yrotation Zrotation
								JOINT RightHandThumb1
								{
									OFFSET -3.507191 -2.063065 3.133727
									CHANNELS 3 Xrotation Yrotation Zrotation
									JOINT RightHandThumb2
									{
										OFFSET -3.101337 -1.790558 1.790558
										CHANNELS 3 Xrotation Yrotation Zrotation
										JOINT RightHandThumb3
										{
											OFFSET -3.058640 -1.765907 1.765906
											CHANNELS 3 Xrotation Yrotation Zrotation
											End Site
											{
												OFFSET 0.415260 3.926476 -0.049563
											}
										}
									}
								}
								JOINT RightHandIndex1
								{
									OFFSET -11.334419 -0.901459 3.706815
									CHANNELS 3 Xrotation Yrotation Zrotation
									JOINT RightHandIndex2
									{
										OFFSET -3.283112 0.000000 0.000000
										CHANNELS 3 Xrotation Yrotation Zrotation
										JOINT RightHandIndex3
										{
											OFFSET -3.323853 0.000000 0.000000
											CHANNELS 3 Xrotation Yrotation Zrotation
											End Site
											{
												OFFSET 1.135597 3.097809 0.402452
											}
										}
									}
								}
								JOINT RightHandMiddle1
								{
									OFFSET -11.335861 0.000000 0.000000
									CHANNELS 3 Xrotation Yrotation Zrotation
									JOINT RightHandMiddle2
									{
										OFFSET -3.410492 0.000000 0.000000
										CHANNELS 3 Xrotation Yrotation Zrotation
										JOINT RightHandMiddle3
										{
											OFFSET -3.312172 0.000000 0.000000
											CHANNELS 3 Xrotation Yrotation Zrotation
											End Site
											{
												OFFSET 1.150200 3.080154 0.400270
											}
										}
									}
								}
								JOINT RightHandRing1
								{
									OFFSET -11.514786 -0.013176 -3.003090
									CHANNELS 3 Xrotation Yrotation Zrotation
									JOINT RightHandRing2
									{
										OFFSET -3.053307 0.000000 0.000000
										CHANNELS 3 Xrotation Yrotation Zrotation
										JOINT RightHandRing3
										{
											OFFSET -3.295807 0.000000 0.000000
											CHANNELS 3 Xrotation Yrotation Zrotation
											End Site
											{
												OFFSET 1.281006 3.013344 0.375733
											}
										}
									}
								}
								JOINT RightHandPinky1
								{
									OFFSET -10.518692 -0.960396 -5.730441
									CHANNELS 3 Xrotation Yrotation Zrotation
									JOINT RightHandPinky2
									{
										OFFSET -2.861649 0.000000 0.000000
										CHANNELS 3 Xrotation Yrotation Zrotation
										JOINT RightHandPinky3
										{
											OFFSET -2.863380 0.000000 0.000000
											CHANNELS 3 Xrotation Yrotation Zrotation
											End Site
											{
												OFFSET 0.843597 2.711159 0.369971
											}
										}
									}
								}
							}
							JOINT RSleeve
							{
								OFFSET -6.676277 -0.344902 -1.011730
								CHANNELS 3 Xrotation Yrotation Zrotation
								End Site
								{
									OFFSET 0.000000 14.885353 0.000000
								}
							}
						}
					}
				}
				JOINT Backpack
				{
					OFFSET 0.000000 -2.471497 36.677502
					CHANNELS 3 Xrotation Yrotation Zrotation
					End Site
					{
						OFFSET 0.000000 20.427315 0.000000
					}
				}
				JOINT Hood
				{
					OFFSET 0.000000 18.754097 -10.431000
					CHANNELS 3 Xrotation Yrotation Zrotation
					JOINT Hood1
					{
						OFFSET 0.000000 -5.011002 -7.685901
						CHANNELS 3 Xrotation Yrotation Zrotation
						End Site
						{
							OFFSET 0.000000 9.175140 0.000000
						}
					}
				}
				JOINT LHoodieString
				{
					OFFSET 5.250500 16.397697 3.089900
					CHANNELS 3 Xrotation Yrotation Zrotation
					JOINT LHoodieString1
					{
						OFFSET 0.257700 -6.364304 3.694600
						CHANNELS 3 Xrotation Yrotation Zrotation
						JOINT LHoodieString2
						{
							OFFSET 0.000000 -9.643799 2.679100
							CHANNELS 3 Xrotation Yrotation Zrotation
							End Site
							{
								OFFSET 0.000000 10.009018 0.000000
							}
						}
					}
				}
				JOINT RHoodieString
				{
					OFFSET -5.250500 16.397697 3.089900
					CHANNELS 3 Xrotation Yrotation Zrotation
					JOINT RHoodieString1
					{
						OFFSET -0.257700 -6.364304 3.694600
						CHANNELS 3 Xrotation Yrotation Zrotation
						JOINT RHoodieString2
						{
							OFFSET 0.000000 -9.643799 2.679100
							CHANNELS 3 Xrotation Yrotation Zrotation
							End Site
							{
								OFFSET 0.000000 10.009018 0.000000
							}
						}
					}
				}
			}
			JOINT LBackpack_Strap
			{
				OFFSET 15.223200 -7.719803 -6.610900
				CHANNELS 3 Xrotation Yrotation Zrotation
				End Site
				{
					OFFSET 0.000000 16.040596 0.000000
				}
			}
			JOINT RBackpack_Strap
			{
				OFFSET -15.223000 -7.719803 -6.610900
				CHANNELS 3 Xrotation Yrotation Zrotation
				End Site
				{
					OFFSET 0.000000 16.040596 0.000000
				}
			}
		}
	}
	JOINT BoyFacialAnim_Joint
	{
		OFFSET 1.000000 -82.208099 -1.550900
		CHANNELS 3 Xrotation Yrotation Zrotation
		End Site
		{
			OFFSET 0.000000 30.012791 0.000000
		}
	}
}
MOTION
Frames: 4
Frame Time: 0.033333
0.324288 80.800323 0.968473 -2.917102 -14.296258 0.270453 -0.000000 -0.000000 -0.000000 -4.897949 5.611733 2.882706 22.665983 8.991382 0.813809 -13.147948 10.107920 -6.237494 0.000000 0.000001 -0.000000 0.000000 0.000001 -0.000000 -0.000000 -0.000000 0.000000 -9.218215 -9.647559 -16.655860 13.171785 10.153843 0.701632 -4.781364 5.886409 12.275330 -0.000000 -0.000000 -0.000000 -0.000000 -0.000000 -0.000000 -0.000000 -0.000001 -0.000001 -0.989074 -1.476739 -0.288055 -0.129704 -2.923534 2.105211 -0.111139 -2.805021 2.232839 1.072374 -1.071357 3.210607 -2.543147 -2.649766 4.584677 -0.000000 -0.000002 -0.000000 -0.000000 -0.000002 -0.000000 -0.000000 -0.000002 -0.000000 1.055736 1.010423 -9.164798 21.979996 -35.722473 -49.035236 0.007627 -93.425616 0.007559 -9.955801 9.372618 27.536866 -19.176557 -11.289921 -19.553264 5.240239 24.564528 1.913832 -0.000002 0.000002 -0.000001 2.529688 5.335727 -50.706641 0.553744 2.709992 -23.092950 -0.000000 -0.000000 -0.000004 2.934009 5.736770 -46.706422 0.748378 3.126782 -26.914325 0.000000 -0.000001 0.000004 3.337972 6.354102 -41.816269 1.004208 3.585648 -31.282014 0.000002 -0.000002 -0.000002 4.437273 8.550494 -34.457949 1.185556 -0.216230 -34.297122 0.000001 -0.000002 0.000001 0.000001 0.000001 -0.000001 -0.464566 -10.124305 11.371973 19.752125 49.972837 47.202211 0.000057 75.584820 -0.000081 -19.257583 19.341795 3.577833 -1.849266 -3.581784 -6.586141 4.645061 -8.656782 -0.231322 0.000000 0.000000 0.000001 -1.639634 -1.092626 44.022161 1.044946 -3.671100 31.767753 -0.000002 0.000001 0.000002 0.524454 -3.256786 42.021721 1.308959 -4.065690 35.679334 0.000002 0.000001 -0.000002 2.888106 -6.062517 38.335895 1.750403 -4.617266 41.505929 -0.000000 0.000001 0.000000 4.517891 -8.522881 35.443491 2.151799 -5.033028 46.275013 -0.000001 -0.000001 0.000002 0.000001 -0.000001 0.000000 -0.000000 0.000001 0.000000 -0.000000 0.000001 0.000000 -0.000000 0.000001 0.000000 -0.000000 0.000001 0.000000 -0.000000 0.000001 0.000000 -0.000000 0.000001 0.000000 -0.000000 0.000001 0.000000 -0.000000 0.000001 0.000000 -0.000000 0.000001 0.000000 -0.000000 0.000000 0.000000 -0.000000 0.000000 0.000000 -0.000000 -0.000000 -0.000000 
0.653517 80.819138 1.095695 -2.886442 -13.926708 0.441422 -0.000000 -0.000001 -0.000000 -4.809206 5.258722 2.333019 22.494424 9.011851 0.819063 -13.183334 10.183728 -5.896108 0.000000 0.000001 -0.000000 0.000000 0.000001 -0.000000 0.000001 -0.000000 -0.000001 -8.765415 -9.948916 -17.081977 12.253482 10.087562 0.695845 -4.432768 5.720786 12.673599 -0.000000 0.000000 0.000000 -0.000000 0.000000 0.000000 -0.000000 0.000001 -0.000000 -1.078981 -1.413005 -0.534550 -0.284559 -2.825604 1.846771 -0.270731 -2.716811 1.973532 0.346990 -1.161774 3.128703 -4.572449 -3.408951 5.308533 -0.000000 -0.000000 -0.000001 -0.000000 -0.000000 -0.000001 -0.000000 -0.000000 -0.000001 1.051720 1.033811 -9.161320 22.585964 -35.607115 -48.953742 -0.001468 -94.180372 -0.001464 -9.663783 10.716345 27.475542 -19.176557 -11.289918 -19.553257 5.240235 24.564524 1.913837 0.000002 0.000001 -0.000001 2.529687 5.335728 -50.706641 0.553749 2.709995 -23.092948 -0.000001 0.000001 -0.000003 2.934008 5.736772 -46.706422 0.748377 3.126789 -26.914318 0.000001 -0.000001 -0.000000 3.337969 6.354103 -41.816272 1.004208 3.585648 -31.282010 -0.000000 0.000001 -0.000000 4.437273 8.550494 -34.457946 1.185554 -0.216231 -34.297119 -0.000000 0.000001 -0.000002 0.000001 0.000001 0.000002 -0.476300 -10.179697 11.345602 20.133214 49.388579 47.731496 0.000128 75.959620 -0.000145 -19.614275 19.264337 3.993406 -1.849266 -3.581784 -6.586141 4.645061 -8.656780 -0.231323 0.000000 0.000001 -0.000001 -1.639634 -1.092629 44.022157 1.044948 -3.671101 31.767753 -0.000001 0.000000 0.000002 0.524454 -3.256783 42.021725 1.308958 -4.065689 35.679330 0.000003 0.000001 -0.000000 2.888107 -6.062514 38.335898 1.750402 -4.617265 41.505922 -0.000000 0.000001 -0.000001 4.517893 -8.522880 35.443494 2.151802 -5.033029 46.275013 -0.000001 -0.000000 -0.000002 -0.000002 -0.000000 0.000001 -0.000000 0.000000 0.000001 -0.000000 0.000000 0.000001 -0.000000 0.000000 0.000001 -0.000000 0.000000 0.000001 -0.000000 0.000000 0.000000 -0.000000 -0.000001 -0.000000 -0.000000 0.000000 0.000001 -0.000000 0.000000 0.000000 -0.000000 -0.000001 -0.000000 -0.000000 -0.000001 -0.000000 -0.000000 -0.000001 -0.000000 -0.000000 -0.000001 -0.000000 
0.925961 80.835274 1.178599 -2.809367 -13.990632 0.623590 -0.000000 -0.000000 -0.000000 -4.701669 4.881154 1.753403 22.261528 9.098123 0.843154 -13.173894 10.689877 -5.597999 -0.000000 -0.000001 -0.000000 -0.000000 -0.000001 0.000000 0.000000 -0.000000 -0.000000 -8.642267 -10.165347 -17.481459 11.547061 10.080442 0.705542 -4.084315 5.900431 12.969670 -0.000000 0.000000 -0.000000 -0.000000 0.000000 -0.000000 -0.000000 -0.000002 0.000001 -1.168562 -1.359259 -0.788828 -0.440846 -2.745419 1.567153 -0.430330 -2.647331 1.693389 -0.368498 -1.097131 3.066401 -6.646467 -3.283880 5.668219 -0.000001 0.000002 -0.000000 -0.000001 0.000002 -0.000000 -0.000001 0.000002 -0.000000 1.056373 1.020406 -9.192519 23.247003 -35.488406 -48.845528 -0.001109 -94.793142 -0.001134 -9.488541 11.816158 27.394270 -19.176555 -11.289922 -19.553264 5.240240 24.564526 1.913838 0.000000 -0.000001 0.000002 2.529687 5.335727 -50.706641 0.553747 2.709996 -23.092952 0.000001 -0.000001 0.000002 2.934005 5.736774 -46.706415 0.748376 3.126783 -26.914323 0.000002 0.000000 -0.000003 3.337970 6.354106 -41.816272 1.004209 3.585651 -31.282003 0.000000 -0.000001 -0.000000 4.437272 8.550494 -34.457946 1.185552 -0.216232 -34.297119 0.000001 -0.000003 -0.000001 -0.000001 0.000002 0.000004 -0.484749 -10.220244 11.323491 20.672512 48.808692 48.113512 0.000060 76.361419 -0.000059 -19.877237 19.100127 4.283833 -1.849265 -3.581785 -6.586141 4.645063 -8.656780 -0.231322 0.000000 0.000000 0.000000 -1.639634 -1.092629 44.022161 1.044947 -3.671102 31.767756 0.000001 0.000001 0.000002 0.524453 -3.256786 42.021725 1.308958 -4.065690 35.679334 -0.000001 0.000001 -0.000000 2.888107 -6.062515 38.335898 1.750403 -4.617265 41.505916 0.000001 -0.000000 0.000002 4.517892 -8.522880 35.443491 2.151799 -5.033031 46.275013 -0.000001 -0.000001 0.000000 0.000002 0.000001 0.000002 0.000000 0.000001 -0.000000 0.000000 0.000001 -0.000000 0.000000 0.000001 -0.000000 0.000000 0.000001 -0.000000 0.000000 0.000001 -0.000000 -0.000000 0.000001 0.000000 0.000000 0.000001 -0.000000 0.000000 0.000001 -0.000000 -0.000000 0.000001 0.000000 -0.000001 -0.000001 -0.000000 -0.000001 -0.000001 -0.000000 -0.000000 -0.000000 -0.000000 
1.129383 80.846817 1.211623 -2.681752 -14.521284 0.822111 0.000000 0.000001 0.000000 -4.587690 4.482313 1.149221 21.974590 9.257495 0.887179 -13.120016 11.652043 -5.352687 0.000000 -0.000000 -0.000000 0.000000 -0.000000 -0.000000 0.000001 -0.000000 -0.000001 -8.974489 -10.252750 -17.855755 11.278233 10.117628 0.729701 -3.837695 6.469583 13.060613 0.000000 -0.000000 -0.000000 0.000000 -0.000000 -0.000000 0.000000 -0.000000 -0.000001 -1.255882 -1.314212 -1.053352 -0.595344 -2.680840 1.260325 -0.586602 -2.594713 1.386225 -1.076431 -0.861202 3.021736 -8.785917 -2.190357 5.642906 -0.000001 -0.000001 -0.000001 -0.000001 -0.000001 -0.000001 -0.000001 -0.000001 -0.000001 1.070270 0.967419 -9.261442 23.973725 -35.355054 -48.703132 -0.001673 -95.263114 -0.001647 -9.443582 12.660729 27.302293 -19.176557 -11.289924 -19.553262 5.240239 24.564524 1.913837 -0.000001 -0.000002 -0.000006 2.529688 5.335726 -50.706645 0.553744 2.709991 -23.092945 0.000001 0.000001 -0.000003 2.934011 5.736773 -46.706418 0.748375 3.126788 -26.914323 0.000002 0.000001 0.000000 3.337973 6.354102 -41.816266 1.004207 3.585647 -31.282010 0.000001 -0.000001 0.000001 4.437273 8.550495 -34.457949 1.185554 -0.216230 -34.297126 -0.000000 0.000002 -0.000002 -0.000001 0.000001 0.000001 -0.489143 -10.242499 11.306542 21.362298 48.228136 48.356267 -0.000054 76.788361 0.000075 -20.039973 18.846228 4.441050 -1.849266 -3.581783 -6.586144 4.645061 -8.656781 -0.231321 -0.000000 0.000001 0.000000 -1.639634 -1.092626 44.022161 1.044947 -3.671100 31.767746 0.000000 -0.000000 0.000003 0.524453 -3.256785 42.021725 1.308960 -4.065689 35.679334 0.000001 0.000000 0.000002 2.888107 -6.062515 38.335898 1.750400 -4.617267 41.505922 0.000001 0.000001 0.000000 4.517893 -8.522880 35.443494 2.151800 -5.033029 46.275013 0.000000 -0.000000 0.000002 0.000001 -0.000000 0.000002 -0.000000 0.000001 -0.000000 -0.000000 0.000001 -0.000000 -0.000000 0.000001 -0.000000 -0.000000 0.000001 -0.000000 -0.000000 0.000001 -0.000000 0.000000 0.000003 -0.000000 -0.000000 0.000001 -0.000000 -0.000000 0.000001 -0.000000 0.000000 0.000003 -0.000000 0.000000 0.000001 -0.000000 0.000000 0.000001 -0.000000 0.000000 0.000001 0.000000 
